<svg width="120" height="120" viewBox="0 0 120 120" fill="none" xmlns="http://www.w3.org/2000/svg">
<path d="M89.1504 76.2871C88.4017 77.8822 87.5228 79.1029 86.5137 79.9492C85.5046 80.7956 84.5443 81.4141 83.6328 81.8047C82.5586 82.2604 81.4681 82.5208 80.3613 82.5859C78.8965 82.5859 77.6921 82.3581 76.748 81.9023C75.8366 81.4466 75.1042 80.8444 74.5508 80.0957C73.9974 79.347 73.6068 78.5007 73.3789 77.5566C73.1836 76.6126 73.0859 75.6523 73.0859 74.6758V54.2168C73.0859 53.696 72.9883 53.2402 72.793 52.8496C72.5977 52.4264 72.3372 52.1823 72.0117 52.1172C71.6862 52.0521 71.2956 52.2148 70.8398 52.6055C70.3841 52.9961 69.8958 53.696 69.375 54.7051C68.4961 57.3092 67.6986 60.0436 66.9824 62.9082C66.3639 65.3822 65.7943 68.1816 65.2734 71.3066C64.7852 74.3991 64.5085 77.5892 64.4434 80.877L55.459 84.002V54.2168C55.459 53.696 55.3613 53.2402 55.166 52.8496C54.9707 52.4264 54.694 52.1823 54.3359 52.1172C54.0104 52.0521 53.6198 52.2148 53.1641 52.6055C52.7083 52.9961 52.2363 53.696 51.748 54.7051C50.7715 57.4395 49.9251 60.2878 49.209 63.25C48.8835 64.5195 48.5742 65.8704 48.2812 67.3027C47.9883 68.735 47.7279 70.2161 47.5 71.7461C47.3047 73.2435 47.1419 74.7734 47.0117 76.3359C46.8815 77.8659 46.8327 79.3796 46.8652 80.877L37.9785 84.002V51.1895C37.9785 50.4082 37.7995 49.7897 37.4414 49.334C37.0833 48.8783 36.6113 48.6504 36.0254 48.6504C35.472 48.6178 34.8535 48.8132 34.1699 49.2363C33.4863 49.6595 32.819 50.3431 32.168 51.2871L30.8496 49.8223C31.5983 48.2598 32.4609 47.0553 33.4375 46.209C34.4466 45.3301 35.4232 44.6953 36.3672 44.3047C37.4414 43.849 38.5482 43.5885 39.6875 43.5234C41.1198 43.5234 42.2917 43.7513 43.2031 44.207C44.1471 44.6628 44.8796 45.265 45.4004 46.0137C45.9538 46.7298 46.3281 47.5599 46.5234 48.5039C46.7513 49.4479 46.8652 50.4082 46.8652 51.3848V61.6875C47.4512 58.7578 48.3301 56.1699 49.502 53.9238C50.6738 51.6777 51.8945 49.7897 53.1641 48.2598C54.4661 46.6973 55.7357 45.5254 56.9727 44.7441C58.2096 43.9303 59.2025 43.5234 59.9512 43.5234C60.8952 43.5234 61.6602 43.6862 62.2461 44.0117C62.832 44.3047 63.2878 44.7604 63.6133 45.3789C63.9388 45.9974 64.1504 46.7624 64.248 47.6738C64.3783 48.5527 64.4434 49.5944 64.4434 50.7988V61.6875C65.0618 58.7578 65.9408 56.1699 67.0801 53.9238C68.252 51.6777 69.4889 49.7897 70.791 48.2598C72.0931 46.6973 73.3626 45.5254 74.5996 44.7441C75.8366 43.9303 76.8294 43.5234 77.5781 43.5234C79.4336 43.5234 80.638 44.1419 81.1914 45.3789C81.7773 46.5833 82.0703 48.39 82.0703 50.7988V74.9199C82.0703 75.7012 82.2493 76.3197 82.6074 76.7754C82.9655 77.2311 83.4212 77.4753 83.9746 77.5078C84.528 77.5078 85.1302 77.2962 85.7812 76.873C86.4648 76.4499 87.1322 75.7663 87.7832 74.8223L89.1504 76.2871Z" fill="black"/>
</svg>
