<svg width="100" height="100" viewBox="0 0 100 100" fill="none" xmlns="http://www.w3.org/2000/svg">
<mask id="mask0_301_3" style="mask-type:alpha" maskUnits="userSpaceOnUse" x="0" y="0" width="100" height="100">
<rect width="100" height="100" fill="white"/>
</mask>
<g mask="url(#mask0_301_3)">
<path d="M0 16C0 7.16345 7.16344 0 16 0H84C92.8366 0 100 7.16344 100 16V84C100 92.8366 92.8366 100 84 100H16C7.16345 100 0 92.8366 0 84V16Z" fill="white"/>
<path d="M87.3125 66.6875C86.3542 68.7292 85.2292 70.2917 83.9375 71.375C82.6458 72.4583 81.4167 73.25 80.25 73.75C78.875 74.3333 77.4792 74.6667 76.0625 74.75C74.1875 74.75 72.6458 74.4583 71.4375 73.875C70.2708 73.2917 69.3333 72.5208 68.625 71.5625C67.9167 70.6042 67.4167 69.5208 67.125 68.3125C66.875 67.1042 66.75 65.875 66.75 64.625V38.4375C66.75 37.7708 66.625 37.1875 66.375 36.6875C66.125 36.1458 65.7917 35.8333 65.375 35.75C64.9583 35.6667 64.4583 35.875 63.875 36.375C63.2917 36.875 62.6667 37.7708 62 39.0625C60.875 42.3958 59.8542 45.8958 58.9375 49.5625C58.1458 52.7292 57.4167 56.3125 56.75 60.3125C56.125 64.2708 55.7708 68.3542 55.6875 72.5625L44.1875 76.5625V38.4375C44.1875 37.7708 44.0625 37.1875 43.8125 36.6875C43.5625 36.1458 43.2083 35.8333 42.75 35.75C42.3333 35.6667 41.8333 35.875 41.25 36.375C40.6667 36.875 40.0625 37.7708 39.4375 39.0625C38.1875 42.5625 37.1042 46.2083 36.1875 50C35.7708 51.625 35.375 53.3542 35 55.1875C34.625 57.0208 34.2917 58.9167 34 60.875C33.75 62.7917 33.5417 64.75 33.375 66.75C33.2083 68.7083 33.1458 70.6458 33.1875 72.5625L21.8125 76.5625V34.5625C21.8125 33.5625 21.5833 32.7708 21.125 32.1875C20.6667 31.6042 20.0625 31.3125 19.3125 31.3125C18.6042 31.2708 17.8125 31.5208 16.9375 32.0625C16.0625 32.6042 15.2083 33.4792 14.375 34.6875L12.6875 32.8125C13.6458 30.8125 14.75 29.2708 16 28.1875C17.2917 27.0625 18.5417 26.25 19.75 25.75C21.125 25.1667 22.5417 24.8333 24 24.75C25.8333 24.75 27.3333 25.0417 28.5 25.625C29.7083 26.2083 30.6458 26.9792 31.3125 27.9375C32.0208 28.8542 32.5 29.9167 32.75 31.125C33.0417 32.3333 33.1875 33.5625 33.1875 34.8125V48C33.9375 44.25 35.0625 40.9375 36.5625 38.0625C38.0625 35.1875 39.625 32.7708 41.25 30.8125C42.9167 28.8125 44.5417 27.3125 46.125 26.3125C47.7083 25.2708 48.9792 24.75 49.9375 24.75C51.1458 24.75 52.125 24.9583 52.875 25.375C53.625 25.75 54.2083 26.3333 54.625 27.125C55.0417 27.9167 55.3125 28.8958 55.4375 30.0625C55.6042 31.1875 55.6875 32.5208 55.6875 34.0625V48C56.4792 44.25 57.6042 40.9375 59.0625 38.0625C60.5625 35.1875 62.1458 32.7708 63.8125 30.8125C65.4792 28.8125 67.1042 27.3125 68.6875 26.3125C70.2708 25.2708 71.5417 24.75 72.5 24.75C74.875 24.75 76.4167 25.5417 77.125 27.125C77.875 28.6667 78.25 30.9792 78.25 34.0625V64.9375C78.25 65.9375 78.4792 66.7292 78.9375 67.3125C79.3958 67.8958 79.9792 68.2083 80.6875 68.25C81.3958 68.25 82.1667 67.9792 83 67.4375C83.875 66.8958 84.7292 66.0208 85.5625 64.8125L87.3125 66.6875Z" fill="black"/>
</g>
</svg>
