<svg width="200" height="120" viewBox="0 0 200 120" fill="none" xmlns="http://www.w3.org/2000/svg">
<path d="M77.4434 76.2871C76.6947 77.8822 75.8158 79.1029 74.8066 79.9492C73.7975 80.7956 72.8372 81.4141 71.9258 81.8047C70.8516 82.2604 69.7611 82.5208 68.6543 82.5859C67.1895 82.5859 65.985 82.3581 65.041 81.9023C64.1296 81.4466 63.3971 80.8444 62.8438 80.0957C62.2904 79.347 61.8997 78.5007 61.6719 77.5566C61.4766 76.6126 61.3789 75.6523 61.3789 74.6758V54.2168C61.3789 53.696 61.2812 53.2402 61.0859 52.8496C60.8906 52.4264 60.6302 52.1823 60.3047 52.1172C59.9792 52.0521 59.5885 52.2148 59.1328 52.6055C58.6771 52.9961 58.1888 53.696 57.668 54.7051C56.7891 57.3092 55.9915 60.0436 55.2754 62.9082C54.6569 65.3822 54.0872 68.1816 53.5664 71.3066C53.0781 74.3991 52.8014 77.5892 52.7363 80.877L43.752 84.002V54.2168C43.752 53.696 43.6543 53.2402 43.459 52.8496C43.2637 52.4264 42.987 52.1823 42.6289 52.1172C42.3034 52.0521 41.9128 52.2148 41.457 52.6055C41.0013 52.9961 40.5293 53.696 40.041 54.7051C39.0645 57.4395 38.2181 60.2878 37.502 63.25C37.1764 64.5195 36.8672 65.8704 36.5742 67.3027C36.2812 68.735 36.0208 70.2161 35.793 71.7461C35.5977 73.2435 35.4349 74.7734 35.3047 76.3359C35.1745 77.8659 35.1257 79.3796 35.1582 80.877L26.2715 84.002V51.1895C26.2715 50.4082 26.0924 49.7897 25.7344 49.334C25.3763 48.8783 24.9043 48.6504 24.3184 48.6504C23.765 48.6178 23.1465 48.8132 22.4629 49.2363C21.7793 49.6595 21.112 50.3431 20.4609 51.2871L19.1426 49.8223C19.8913 48.2598 20.7539 47.0553 21.7305 46.209C22.7396 45.3301 23.7161 44.6953 24.6602 44.3047C25.7344 43.849 26.8411 43.5885 27.9805 43.5234C29.4128 43.5234 30.5846 43.7513 31.4961 44.207C32.4401 44.6628 33.1725 45.265 33.6934 46.0137C34.2467 46.7298 34.6211 47.5599 34.8164 48.5039C35.0443 49.4479 35.1582 50.4082 35.1582 51.3848V61.6875C35.7441 58.7578 36.623 56.1699 37.7949 53.9238C38.9668 51.6777 40.1875 49.7897 41.457 48.2598C42.7591 46.6973 44.0286 45.5254 45.2656 44.7441C46.5026 43.9303 47.4954 43.5234 48.2441 43.5234C49.1882 43.5234 49.9531 43.6862 50.5391 44.0117C51.125 44.3047 51.5807 44.7604 51.9062 45.3789C52.2318 45.9974 52.4434 46.7624 52.541 47.6738C52.6712 48.5527 52.7363 49.5944 52.7363 50.7988V61.6875C53.3548 58.7578 54.2337 56.1699 55.373 53.9238C56.5449 51.6777 57.7819 49.7897 59.084 48.2598C60.3861 46.6973 61.6556 45.5254 62.8926 44.7441C64.1296 43.9303 65.1224 43.5234 65.8711 43.5234C67.7266 43.5234 68.931 44.1419 69.4844 45.3789C70.0703 46.5833 70.3633 48.39 70.3633 50.7988V74.9199C70.3633 75.7012 70.5423 76.3197 70.9004 76.7754C71.2585 77.2311 71.7142 77.4753 72.2676 77.5078C72.821 77.5078 73.4232 77.2962 74.0742 76.873C74.7578 76.4499 75.4251 75.7663 76.0762 74.8223L77.4434 76.2871ZM118.115 72.4785C116.976 73.9434 115.723 75.3105 114.355 76.5801C113.021 77.8496 111.556 78.9564 109.961 79.9004C108.398 80.8444 106.738 81.5931 104.98 82.1465C103.223 82.6999 101.4 82.9766 99.5117 82.9766C97.1029 82.9766 94.8893 82.5534 92.8711 81.707C90.8529 80.8281 89.1113 79.64 87.6465 78.1426C86.1816 76.6126 85.0423 74.8223 84.2285 72.7715C83.4147 70.6882 83.0078 68.4583 83.0078 66.082C83.0078 64.1289 83.2845 62.2083 83.8379 60.3203C84.3913 58.4323 85.1725 56.6582 86.1816 54.998C87.1908 53.3379 88.3789 51.8079 89.7461 50.4082C91.1458 48.9759 92.6758 47.7552 94.3359 46.7461C95.9961 45.737 97.7539 44.9557 99.6094 44.4023C101.465 43.8164 103.369 43.5234 105.322 43.5234C106.689 43.5234 107.975 43.6862 109.18 44.0117C110.417 44.3372 111.507 44.8581 112.451 45.5742C113.395 46.2578 114.144 47.153 114.697 48.2598C115.251 49.334 115.527 50.6198 115.527 52.1172C115.527 53.3542 115.153 54.6562 114.404 56.0234C113.688 57.3906 112.728 58.7578 111.523 60.125C110.352 61.4922 109.017 62.8431 107.52 64.1777C106.022 65.4798 104.492 66.7005 102.93 67.8398C101.4 68.9466 99.9186 69.9232 98.4863 70.7695C97.054 71.6159 95.8008 72.2669 94.7266 72.7227C95.931 74.2201 97.3307 75.4408 98.9258 76.3848C100.521 77.3288 102.214 77.8008 104.004 77.8008C105.143 77.8008 106.299 77.5892 107.471 77.166C108.643 76.7103 109.766 76.1406 110.84 75.457C111.947 74.7734 112.988 74.0247 113.965 73.2109C114.974 72.3971 115.869 71.6322 116.65 70.916L118.115 72.4785ZM106.348 53.9238C106.348 53.1751 106.217 52.459 105.957 51.7754C105.729 51.0918 105.387 50.5059 104.932 50.0176C104.476 49.4967 103.923 49.0898 103.271 48.7969C102.653 48.4714 101.937 48.3086 101.123 48.3086C99.6582 48.3086 98.3073 48.8294 97.0703 49.8711C95.8333 50.8802 94.7591 52.1335 93.8477 53.6309C92.9688 55.1283 92.2689 56.7233 91.748 58.416C91.2598 60.0762 91.0156 61.541 91.0156 62.8105C91.0156 64.0475 91.2109 65.3171 91.6016 66.6191C91.9922 67.9212 92.5293 69.1745 93.2129 70.3789C94.515 69.6628 95.931 68.6699 97.4609 67.4004C98.9909 66.1309 100.407 64.7474 101.709 63.25C103.044 61.7201 104.15 60.1413 105.029 58.5137C105.908 56.8861 106.348 55.3561 106.348 53.9238ZM180.857 76.2871C180.109 77.8822 179.23 79.1029 178.221 79.9492C177.212 80.7956 176.251 81.4141 175.34 81.8047C174.266 82.2604 173.175 82.5208 172.068 82.5859C170.604 82.5859 169.399 82.3581 168.455 81.9023C167.544 81.4466 166.811 80.8444 166.258 80.0957C165.704 79.347 165.314 78.5007 165.086 77.5566C164.891 76.6126 164.793 75.6523 164.793 74.6758V54.2168C164.793 53.696 164.695 53.2402 164.5 52.8496C164.305 52.4264 164.044 52.1823 163.719 52.1172C163.393 52.0521 163.003 52.2148 162.547 52.6055C162.091 52.9961 161.603 53.696 161.082 54.7051C160.203 57.3092 159.406 60.0436 158.689 62.9082C158.071 65.3822 157.501 68.1816 156.98 71.3066C156.492 74.3991 156.215 77.5892 156.15 80.877L147.166 84.002V54.2168C147.166 53.696 147.068 53.2402 146.873 52.8496C146.678 52.4264 146.401 52.1823 146.043 52.1172C145.717 52.0521 145.327 52.2148 144.871 52.6055C144.415 52.9961 143.943 53.696 143.455 54.7051C142.479 57.4395 141.632 60.2878 140.916 63.25C140.59 64.5195 140.281 65.8704 139.988 67.3027C139.695 68.735 139.435 70.2161 139.207 71.7461C139.012 73.2435 138.849 74.7734 138.719 76.3359C138.589 77.8659 138.54 79.3796 138.572 80.877L129.686 84.002V51.1895C129.686 50.4082 129.507 49.7897 129.148 49.334C128.79 48.8783 128.318 48.6504 127.732 48.6504C127.179 48.6178 126.561 48.8132 125.877 49.2363C125.193 49.6595 124.526 50.3431 123.875 51.2871L122.557 49.8223C123.305 48.2598 124.168 47.0553 125.145 46.209C126.154 45.3301 127.13 44.6953 128.074 44.3047C129.148 43.849 130.255 43.5885 131.395 43.5234C132.827 43.5234 133.999 43.7513 134.91 44.207C135.854 44.6628 136.587 45.265 137.107 46.0137C137.661 46.7298 138.035 47.5599 138.23 48.5039C138.458 49.4479 138.572 50.4082 138.572 51.3848V61.6875C139.158 58.7578 140.037 56.1699 141.209 53.9238C142.381 51.6777 143.602 49.7897 144.871 48.2598C146.173 46.6973 147.443 45.5254 148.68 44.7441C149.917 43.9303 150.91 43.5234 151.658 43.5234C152.602 43.5234 153.367 43.6862 153.953 44.0117C154.539 44.3047 154.995 44.7604 155.32 45.3789C155.646 45.9974 155.857 46.7624 155.955 47.6738C156.085 48.5527 156.15 49.5944 156.15 50.7988V61.6875C156.769 58.7578 157.648 56.1699 158.787 53.9238C159.959 51.6777 161.196 49.7897 162.498 48.2598C163.8 46.6973 165.07 45.5254 166.307 44.7441C167.544 43.9303 168.536 43.5234 169.285 43.5234C171.141 43.5234 172.345 44.1419 172.898 45.3789C173.484 46.5833 173.777 48.39 173.777 50.7988V74.9199C173.777 75.7012 173.956 76.3197 174.314 76.7754C174.673 77.2311 175.128 77.4753 175.682 77.5078C176.235 77.5078 176.837 77.2962 177.488 76.873C178.172 76.4499 178.839 75.7663 179.49 74.8223L180.857 76.2871Z" fill="black"/>
</svg>
